<?xml version="1.0" encoding="utf-8"?>
<!-- Generator: Adobe Illustrator 16.0.0, SVG Export Plug-In . SVG Version: 6.00 Build 0)  -->
<!DOCTYPE svg PUBLIC "-//W3C//DTD SVG 1.1//EN" "http://www.w3.org/Graphics/SVG/1.1/DTD/svg11.dtd">
<svg version="1.1" xmlns="http://www.w3.org/2000/svg" xmlns:xlink="http://www.w3.org/1999/xlink" x="0px" y="0px" width="125px"
	 height="40px" viewBox="0 0 125 40" enable-background="new 0 0 125 40" xml:space="preserve">
<g id="Layer_1">
</g>
<g id="Layer_2">
</g>
<g id="Layer_3">
</g>
<g id="Layer_4">
	<g>
		<path fill="#343433" d="M17.7,19.3c0-2.2,0.9-3.9,2.8-5.1c-1.1-1.6-2.7-2.5-4.8-2.7c-0.7-0.1-1.7,0.1-2.9,0.5
			c-1.3,0.5-2,0.7-2.1,0.7c-0.3,0-1-0.2-1.9-0.6c-0.9-0.4-1.7-0.6-2.4-0.6c-1.1,0-2.1,0.3-3.1,0.9c-1,0.6-1.7,1.4-2.3,2.5
			C0.4,16.3,0,17.8,0,19.6c0,1.6,0.3,3.2,0.8,4.9c0.5,1.6,1.1,2.9,1.9,4.1c0.7,1.1,1.3,1.8,1.8,2.3C5.3,31.7,6.1,32,6.8,32
			c0.5,0,1.2-0.2,2-0.6c0.8-0.3,1.5-0.5,2.3-0.5c0.7,0,1.4,0.2,2.2,0.5c0.8,0.4,1.5,0.5,2.1,0.5c0.8,0,1.5-0.4,2.2-1.1
			c0.2-0.2,0.5-0.5,0.8-0.9c0.3-0.4,0.6-0.8,0.9-1.4c0.2-0.4,0.5-0.8,0.7-1.2c0.2-0.4,0.4-0.9,0.6-1.4c0.1-0.2,0.2-0.4,0.2-0.6
			c0.1-0.2,0.1-0.4,0.2-0.6c-0.6-0.3-1.2-0.7-1.7-1.2C18.3,22.5,17.7,21,17.7,19.3z"/>
		<polygon fill="#343433" points="36.5,24.2 36.4,24.2 31.1,11.9 27,11.9 27,31.7 30.6,31.7 30.6,18.9 30.8,18.9 35.2,29.1 
			37.7,29.1 42.1,18.9 42.3,18.9 42.3,31.7 45.9,31.7 45.9,11.9 41.8,11.9 		"/>
		<path fill="#343433" d="M14.4,9.3c0.9-1.2,1.4-2.4,1.4-3.8c0-0.1,0-0.2,0-0.3c0-0.1,0-0.2,0-0.3c-0.6,0-1.3,0.2-2,0.6
			C13,6,12.4,6.5,11.9,7.1c-0.9,1.1-1.4,2.4-1.4,3.7c0,0.1,0,0.2,0,0.3c0,0.1,0,0.2,0,0.3C12,11.4,13.3,10.7,14.4,9.3z"/>
		<rect x="88.2" y="11.9" fill="#343433" width="4.1" height="19.8"/>
		<path fill="#343433" d="M104.5,15.1c2.4,0,3.7,1.9,3.7,3.9h3.9v-0.4c0-3.8-2.9-7-7.6-7c-5.1,0-8.1,3.4-8.1,9.2v2.2
			c0,5.8,3,9.1,8.1,9.1c4.9,0,7.6-3.2,7.6-6.8v-0.4h-3.9c0,2-1.2,3.7-3.7,3.7c-2.5,0-4-1.8-4-5.6v-2.2
			C100.5,16.9,102.1,15.1,104.5,15.1z"/>
		<path fill="#343433" d="M61.5,24.4c0,2.7-1.5,4.1-3.8,4.1c-2.3,0-3.8-1.4-3.8-4.1V11.9h-4V25c0,4.2,2.9,7.1,7.8,7.1
			c4.9,0,7.8-2.9,7.8-7.1V11.9h-4V24.4z"/>
		<path fill="#343433" d="M79,20.2l-2.9-0.7c-1.7-0.4-2.6-1.1-2.6-2.3c0-1.5,1.2-2.5,3.2-2.5c2.2,0,3.3,1.3,3.4,2.7h3.8
			c0-3.5-2.9-5.9-7.2-5.9c-4,0-7.2,2.2-7.2,6c0,3.4,2.2,4.9,4.9,5.5l2.9,0.7c1.9,0.5,2.9,1.1,2.9,2.4c0,1.5-1.2,2.6-3.5,2.6
			c-2.4,0-3.7-1.3-3.8-2.8H69c0.1,2.8,1.9,6.1,7.5,6.1c4.7,0,7.7-2.4,7.7-6.3C84.1,22.2,81.8,20.8,79,20.2z"/>
	</g>
</g>
</svg>
