<?xml version="1.0" encoding="utf-8"?>
<!-- Generator: Adobe Illustrator 16.0.0, SVG Export Plug-In . SVG Version: 6.00 Build 0)  -->
<!DOCTYPE svg PUBLIC "-//W3C//DTD SVG 1.1//EN" "http://www.w3.org/Graphics/SVG/1.1/DTD/svg11.dtd">
<svg version="1.1" id="Layer_1" xmlns="http://www.w3.org/2000/svg" xmlns:xlink="http://www.w3.org/1999/xlink" x="0px" y="0px"
	 width="125px" height="40px" viewBox="0 0 125 40" enable-background="new 0 0 125 40" xml:space="preserve">
<g>
	<g>
		<g>
			<g opacity="0.54">
				<g>
					<g>
						<g>
							<path d="M29.583,19.641c0-4.023,3.382-7.299,7.405-7.299c2.225,0,3.81,0.873,5.002,2.012l-1.407,1.406
								c-0.854-0.801-2.011-1.424-3.596-1.424c-2.938,0-5.234,2.367-5.234,5.305s2.296,5.305,5.234,5.305
								c1.905,0,2.991-0.766,3.685-1.459c0.57-0.57,0.944-1.39,1.086-2.511h-4.771v-1.994H43.7c0.071,0.356,0.107,0.784,0.107,1.247
								c0,1.495-0.409,3.346-1.727,4.664c-1.282,1.335-2.919,2.047-5.091,2.047C32.965,26.939,29.583,23.664,29.583,19.641"/>
							<path d="M49.23,17.54c-2.599,0-4.718,1.976-4.718,4.699c0,2.706,2.119,4.7,4.718,4.7c2.599,0,4.718-1.994,4.718-4.7
								C53.948,19.516,51.829,17.54,49.23,17.54 M49.23,25.088c-1.424,0-2.652-1.176-2.652-2.849c0-1.69,1.228-2.848,2.652-2.848
								c1.424,0,2.652,1.158,2.652,2.848C51.883,23.912,50.654,25.088,49.23,25.088"/>
							<path d="M59.521,17.54c-2.599,0-4.718,1.976-4.718,4.699c0,2.706,2.119,4.7,4.718,4.7c2.599,0,4.717-1.994,4.717-4.7
								C64.238,19.516,62.121,17.54,59.521,17.54 M59.521,25.088c-1.424,0-2.652-1.176-2.652-2.849c0-1.69,1.228-2.848,2.652-2.848
								c1.424,0,2.652,1.158,2.652,2.848C62.173,23.912,60.945,25.088,59.521,25.088"/>
							<path d="M72.152,17.825v0.766h-0.07c-0.462-0.552-1.352-1.05-2.475-1.05c-2.351,0-4.504,2.065-4.504,4.717
								c0,2.636,2.153,4.683,4.504,4.683c1.123,0,2.013-0.499,2.475-1.068h0.07v0.677c0,1.798-0.961,2.759-2.51,2.759
								c-1.263,0-2.047-0.908-2.367-1.674l-1.798,0.748c0.517,1.247,1.888,2.777,4.165,2.777c2.421,0,4.469-1.425,4.469-4.896
								v-8.438H72.152z M69.786,25.088c-1.425,0-2.616-1.193-2.616-2.831c0-1.655,1.191-2.866,2.616-2.866
								c1.405,0,2.51,1.21,2.51,2.866C72.296,23.895,71.191,25.088,69.786,25.088"/>
							<rect x="75.536" y="12.84" width="2.063" height="13.814"/>
							<path d="M83.261,25.088c-1.051,0-1.797-0.48-2.277-1.424l6.282-2.6l-0.212-0.533c-0.393-1.051-1.585-2.991-4.024-2.991
								c-2.421,0-4.432,1.905-4.432,4.699c0,2.635,1.992,4.7,4.663,4.7c2.154,0,3.4-1.317,3.918-2.083l-1.604-1.067
								C85.041,24.572,84.311,25.088,83.261,25.088 M83.101,19.356c0.819,0,1.514,0.41,1.745,0.997l-4.201,1.744
								C80.59,20.281,82.05,19.356,83.101,19.356"/>
						</g>
						<path d="M96.336,12.84h-4.941v13.814h2.061v-5.233h2.881c2.285,0,4.531-1.654,4.531-4.29S98.621,12.84,96.336,12.84
							 M96.388,19.498h-2.933v-4.735h2.933c1.543,0,2.417,1.276,2.417,2.368C98.805,18.202,97.931,19.498,96.388,19.498"/>
						<rect x="102.005" y="12.84" width="2.062" height="13.814"/>
						<path d="M113.325,26.632v-5.296c0-2.453-1.83-3.821-4.194-3.821c-1.494,0-3.039,0.657-3.68,2.115l1.83,0.764
							c0.392-0.764,1.121-1.013,1.885-1.013c1.066,0,2.15,0.64,2.169,1.777v0.143c-0.374-0.215-1.173-0.534-2.15-0.534
							c-1.974,0-3.98,1.084-3.98,3.11c0,1.848,1.616,3.039,3.43,3.039c1.385,0,2.15-0.622,2.631-1.352h0.07v1.067H113.325z
							 M108.883,25.086c-0.676,0-1.618-0.338-1.618-1.174c0-1.066,1.173-1.476,2.187-1.476c0.906,0,1.333,0.196,1.884,0.463
							C111.175,24.179,110.072,25.086,108.883,25.086"/>
						<polygon points="120.575,17.817 118.213,23.806 118.142,23.806 115.688,17.817 113.467,17.817 117.146,26.187 115.05,30.844 
							117.2,30.844 122.867,17.817 						"/>
					</g>
				</g>
			</g>
		</g>
	</g>
</g>
<g>
	<linearGradient id="SVGID_1_" gradientUnits="userSpaceOnUse" x1="19.7695" y1="22.9111" x2="15.6053" y2="16.4324">
		<stop  offset="0.2432" style="stop-color:#FFCE86"/>
		<stop  offset="0.4309" style="stop-color:#FFB886"/>
		<stop  offset="0.6378" style="stop-color:#FFA687"/>
		<stop  offset="0.7884" style="stop-color:#FFA087"/>
	</linearGradient>
	<path fill="url(#SVGID_1_)" d="M21.981,18.918c-0.358-0.194-4.353-2.367-5.25-2.858l-3.925,3.922l3.915,3.912
		c2.826-1.539,4.967-2.705,5.125-2.79c0.497-0.268,0.962-0.58,0.962-1.153v-0.02C22.808,19.51,22.342,19.115,21.981,18.918z"/>
	<linearGradient id="SVGID_2_" gradientUnits="userSpaceOnUse" x1="8.687" y1="20.4434" x2="8.687" y2="6.7167">
		<stop  offset="0.2432" style="stop-color:#DCFFAF"/>
		<stop  offset="0.2514" style="stop-color:#DAFEAF"/>
		<stop  offset="0.4802" style="stop-color:#B2ECB7"/>
		<stop  offset="0.6891" style="stop-color:#95DEBD"/>
		<stop  offset="0.8692" style="stop-color:#83D6C1"/>
		<stop  offset="1" style="stop-color:#7DD3C2"/>
	</linearGradient>
	<path fill="url(#SVGID_2_)" d="M16.731,16.06c-0.005-0.003-0.012-0.007-0.017-0.009C15.85,15.577,2.642,8.39,2.213,8.159
		C1.806,7.938,1.23,7.57,0.642,7.828l12.164,12.154L16.731,16.06z"/>
	<linearGradient id="SVGID_3_" gradientUnits="userSpaceOnUse" x1="6.4028" y1="32.6514" x2="6.4028" y2="8.3988">
		<stop  offset="0.3046" style="stop-color:#77FFD7"/>
		<stop  offset="0.3259" style="stop-color:#75FAD6"/>
		<stop  offset="0.5319" style="stop-color:#67D2CE"/>
		<stop  offset="0.72" style="stop-color:#5DB5C9"/>
		<stop  offset="0.8822" style="stop-color:#57A3C5"/>
		<stop  offset="1" style="stop-color:#559DC4"/>
	</linearGradient>
	<path fill="url(#SVGID_3_)" d="M0.642,7.828c-0.03,0.013-0.061,0.027-0.091,0.044C0.267,8.027,0,8.402,0,9.106
		c0,0.704,0,21.013,0,21.72c0,0.708,0.274,1.135,0.613,1.287c0.013,0.005,0.026,0.009,0.039,0.015l12.155-12.146L0.642,7.828z"/>
	<linearGradient id="SVGID_4_" gradientUnits="userSpaceOnUse" x1="2.0537" y1="32.3398" x2="14.4893" y2="22.162">
		<stop  offset="0.0916" style="stop-color:#A950C6"/>
		<stop  offset="0.2353" style="stop-color:#AD51C0"/>
		<stop  offset="0.4332" style="stop-color:#B753AE"/>
		<stop  offset="0.6625" style="stop-color:#C95691"/>
		<stop  offset="0.9138" style="stop-color:#E15A69"/>
		<stop  offset="1" style="stop-color:#EA5C59"/>
	</linearGradient>
	<path fill="url(#SVGID_4_)" d="M0.651,32.128c0.331,0.135,0.721,0.125,1.252-0.163c0.371-0.201,9.03-4.918,14.817-8.071
		l-3.915-3.912L0.651,32.128z"/>
</g>
</svg>
