<?xml version="1.0" encoding="utf-8"?>
<!-- Generator: Adobe Illustrator 20.1.0, SVG Export Plug-In . SVG Version: 6.00 Build 0)  -->
<svg version="1.1" id="logos" xmlns="http://www.w3.org/2000/svg" xmlns:xlink="http://www.w3.org/1999/xlink" x="0px" y="0px"
	 viewBox="0 0 125 40" style="enable-background:new 0 0 125 40;" xml:space="preserve">
<style type="text/css">
	.st0{fill:url(#SVGID_1_);}
	.st1{fill:#919295;}
	.st2{fill:none;}
</style>
<linearGradient id="SVGID_1_" gradientUnits="userSpaceOnUse" x1="11.36102" y1="13.22137" x2="11.36102" y2="30.00708" gradientTransform="matrix(1 0 0 -1 0 42)">
	<stop  offset="0.48965" style="stop-color:#8D191B"/>
	<stop  offset="1" style="stop-color:#C72027"/>
</linearGradient>
<path class="st0" d="M17.37553,11.88159c-3.81956-0.4646-6.01451,2.54962-6.01451,2.54962s-2.19495-3.01422-6.01451-2.54962
	c-4.83775,0.58838-7.25663,6.60284-3.53025,10.13312c2.18013,2.06537,5.07486,4.6217,7.10301,6.38867v-4.19025
	c0-1.30273,1.06585-2.36859,2.36858-2.36859s2.3686,1.06586,2.3686,2.36859v4.31769
	c2.03326-1.76978,5.01632-4.40063,7.24932-6.51611C24.63218,18.48444,22.21329,12.46997,17.37553,11.88159z M5.85852,22.62012
	c-0.0842,0.10553-0.20835,0.16052-0.33356,0.16052c-0.09325,0-0.18702-0.0304-0.26559-0.09308
	c-1.42258-1.13544-2.85806-3.10394-2.85806-4.94281c0-1.52576,0.75568-2.9472,2.02152-3.80237
	c0.19503-0.13184,0.46011-0.08051,0.59187,0.11462c0.13176,0.19501,0.08045,0.46008-0.11458,0.59186
	c-1.03085,0.69647-1.64623,1.85376-1.64623,3.09589c0,1.32568,1.04333,3.08429,2.53731,4.27637
	C5.97519,22.16803,6.00537,22.43616,5.85852,22.62012z M8.43808,21.02136c-0.08097,0.12885-0.2196,0.1994-0.36134,0.1994
	c-0.07753,0-0.15601-0.021-0.22646-0.06537c-1.1548-0.72601-1.96137-2.08112-1.96137-3.29565
	c0-1.25409,0.69584-2.38464,1.81587-2.9505c0.20992-0.10638,0.46635-0.02203,0.57272,0.18829
	c0.10616,0.21008,0.02186,0.46655-0.18827,0.57269c-0.83134,0.41992-1.34775,1.25897-1.34775,2.18951
	c0,0.9223,0.65712,2.00464,1.56256,2.57385C8.50335,20.5589,8.56339,20.82196,8.43808,21.02136z M11.31334,20.06171
	c-1.01275,0-1.83375-0.82098-1.83375-1.83374s0.821-1.83374,1.83375-1.83374c1.01275,0,1.83375,0.82098,1.83375,1.83374
	S12.32608,20.06171,11.31334,20.06171z M14.82497,21.1554c-0.07046,0.04437-0.14893,0.06537-0.22647,0.06537
	c-0.14175,0-0.28037-0.07056-0.36134-0.1994c-0.12531-0.1994-0.06525-0.46246,0.13404-0.58777
	c0.90533-0.56909,1.56245-1.65155,1.56245-2.57385c0-0.93066-0.51641-1.76959-1.34775-2.18951
	c-0.21012-0.10614-0.29442-0.36261-0.18827-0.57269c0.10605-0.21033,0.36238-0.29468,0.57272-0.18829
	c1.12004,0.56586,1.81587,1.69641,1.81587,2.9505C16.78623,19.07428,15.97976,20.42938,14.82497,21.1554z M17.41587,22.68756
	c-0.07858,0.06268-0.17245,0.09308-0.2656,0.09308c-0.1253,0-0.24936-0.05499-0.33355-0.16052
	c-0.14685-0.18396-0.11667-0.45209,0.06733-0.599c1.49398-1.19208,2.53731-2.95068,2.53731-4.27637
	c0-1.24207-0.61539-2.39941-1.64623-3.09589c-0.19514-0.1319-0.24634-0.39685-0.11459-0.59186
	c0.13186-0.19513,0.39663-0.24646,0.59187-0.11462c1.26585,0.85529,2.02152,2.27673,2.02152,3.80237
	C20.27394,19.58362,18.83846,21.55212,17.41587,22.68756z"/>
<circle cx="27.18098" cy="16.35016" r="1.63854"/>
<path d="M27.5673,18.53467h-0.77264c-0.68872,0-1.25221,0.56348-1.25221,1.2522v7.11359h3.27707v-7.11359
	C28.81952,19.09814,28.25602,18.53467,27.5673,18.53467z"/>
<polygon points="38.1445,15.60394 38.1445,19.79529 34.0415,19.79529 34.0415,15.60394 30.89764,15.60394 30.89764,26.90045 
	34.0415,26.90045 34.0415,22.47778 38.1445,22.47778 38.1445,26.90045 41.28834,26.90045 41.28834,15.60394 "/>
<path d="M46.77024,17.98871h-0.46651c-2.28954,0-4.1628,1.87329-4.1628,4.16284v0.62909c0,2.28955,1.87327,4.16278,4.1628,4.16278
	h0.46651c1.47643,0,2.84842-0.45148,3.77205-1.69482l-1.66962-1.38538c0,0-0.63943,0.95911-1.9538,0.95911
	c-1.14299,0-1.72167-0.81305-1.93053-1.62988h5.92434c0.01347-0.13556,0.02036-0.27289,0.02036-0.4118v-0.62909
	C50.93303,19.862,49.05976,17.98871,46.77024,17.98871z M44.96397,21.73175c0.15469-0.79065,0.59393-1.54987,1.573-1.54987
	c1.28774,0,1.58968,1.26569,1.58968,1.54987H44.96397z"/>
<path d="M55.72873,17.98871c-1.27885,0-2.87742,0.40381-3.62341,0.79462l0.67495,2.02484
	c1.3499-0.82361,4.12075-0.95917,4.12075,1.1723v0.03198c-1.62022-0.74896-5.5417-0.57538-5.5417,2.24152
	c0,1.03021,0.8881,2.64648,2.87742,2.64648c1.42096,0,2.62875-0.97687,2.62875-0.97687v0.97687h2.98399V21.2522
	C59.84948,19.67139,58.78377,17.98871,55.72873,17.98871z M55.40902,25.14203c-1.06571,0-1.42095-1.1012-0.94138-1.74066
	c0.43874-0.58496,1.63433-0.60327,2.43338-0.08569v0.68964C56.90102,24.00531,56.47474,25.14203,55.40902,25.14203z"/>
<path d="M63.8992,19.84393v-1.74866h-3.01951v8.80518h3.01951v-3.88599c0.3904-1.17096,1.24089-1.96698,2.77085-1.91553v-3.11023
	C65.52335,17.98871,64.63423,18.53699,63.8992,19.84393z"/>
<path d="M73.70374,20.3819v-2.19781h-2.13142v-2.24268h-3.05504v2.24268h-0.92361v2.19781h0.92361v3.26819
	c0,1.59851,0.35524,2.55768,1.74067,3.09052c1.38542,0.5329,3.26818-0.07104,3.44579-0.46179v-2.23572
	c-0.71047,0.57068-2.13142,0.53058-2.13142-0.39301V20.3819H73.70374z"/>
<g>
	<path class="st1" d="M84.04108,19.10297c0-2.05005-1.67329-3.37469-4.26285-3.37469h-3.90754
		c-0.35323,0-0.63943,0.28632-0.63943,0.63947v9.98218c0,0.35321,0.2862,0.63947,0.63943,0.63947
		c0.35322,0,0.63943-0.28625,0.63943-0.63947v-3.72998h3.17957c0.01453,0.02496,0.02821,0.05029,0.0465,0.07367l3.16154,4.04974
		c0.12593,0.1615,0.31409,0.24603,0.50434,0.24603c0.13759,0,0.27621-0.04413,0.39298-0.1355
		c0.2785-0.21735,0.32804-0.61908,0.11053-0.89734l-2.7277-3.49402C82.87241,21.98431,84.04108,20.47784,84.04108,19.10297z
		 M80.06255,21.34106h-3.55244v-4.33392h3.26811c0.7,0,2.98399,0.15112,2.98399,2.09583
		C82.76222,19.99396,81.68548,21.34106,80.06255,21.34106z"/>
	<path class="st1" d="M91.40468,15.66901c-0.10594-0.22485-0.3222-0.37054-0.58115-0.367
		c-0.24852,0.00104-0.47395,0.14612-0.57802,0.37189l-4.7957,10.40839c-0.14779,0.32074-0.00749,0.70062,0.31305,0.84839
		c0.0868,0.03998,0.17776,0.0589,0.26727,0.0589c0.24186,0,0.47332-0.138,0.58114-0.37195l1.2036-2.61224h6.06635
		c0.01187,0,0.02293-0.00287,0.03465-0.00348l1.23422,2.62048c0.15048,0.3197,0.53201,0.4563,0.85089,0.30597
		c0.31952-0.15045,0.45647-0.53137,0.30598-0.85089L91.40468,15.66901z M88.40411,22.7265l2.4286-5.27087l2.48248,5.27087H88.40411z
		"/>
	<path class="st1" d="M101.51875,15.72827h-2.77086c-0.35323,0-0.63942,0.28632-0.63942,0.63947v9.98218
		c0,0.35321,0.28619,0.63947,0.63942,0.63947h3.44588c3.13406,0,5.68387-2.58167,5.68387-5.75488
		C107.87764,17.17035,104.45216,15.72827,101.51875,15.72827z M102.19377,25.71051h-2.80644v-8.70337h2.13142
		c1.19164,0,5.08003,0.30487,5.08003,4.22736C106.59879,23.70251,104.62263,25.71051,102.19377,25.71051z"/>
	<path class="st1" d="M110.71947,15.72827c-0.35323,0-0.63943,0.28632-0.63943,0.63947v9.98218
		c0,0.35321,0.28621,0.63947,0.63943,0.63947s0.63942-0.28625,0.63942-0.63947v-9.98218
		C111.35889,16.01459,111.07269,15.72827,110.71947,15.72827z"/>
	<path class="st1" d="M119.31613,15.58612c-3.13406,0-5.68365,2.55774-5.68365,5.70166c0,3.14386,2.54959,5.7016,5.68365,5.7016
		S125,24.43164,125,21.28778C125,18.14386,122.4502,15.58612,119.31613,15.58612z M119.31613,25.71051
		c-2.42886,0-4.4048-1.98407-4.4048-4.42273c0-2.43872,1.97594-4.42279,4.4048-4.42279s4.40501,1.98407,4.40501,4.42279
		C123.72115,23.72644,121.745,25.71051,119.31613,25.71051z"/>
</g>
<rect x="0" class="st2" width="125" height="40"/>
</svg>
