<?xml version="1.0" encoding="utf-8"?>
<!-- Generator: Adobe Illustrator 19.2.0, SVG Export Plug-In . SVG Version: 6.00 Build 0)  -->
<svg version="1.1" xmlns="http://www.w3.org/2000/svg" xmlns:xlink="http://www.w3.org/1999/xlink" x="0px" y="0px"
	 viewBox="0 0 125 40" enable-background="new 0 0 125 40" xml:space="preserve">
<g id="bg" display="none">
	<rect display="inline" fill="#FFFFFF" width="125" height="40"/>
</g>
<g id="icons">
	<g>
		<g>
			<g>
				<linearGradient id="SVGID_1_" gradientUnits="userSpaceOnUse" x1="27.1691" y1="38.6766" x2="12.8306" y2="1.3234">
					<stop  offset="0" style="stop-color:#22C9FD"/>
					<stop  offset="0.1149" style="stop-color:#4996FE"/>
					<stop  offset="0.2217" style="stop-color:#6B6BFF"/>
					<stop  offset="0.4182" style="stop-color:#9B5DE0"/>
					<stop  offset="0.6248" style="stop-color:#C950C3"/>
					<stop  offset="0.7291" style="stop-color:#DA4BB8"/>
					<stop  offset="0.7465" style="stop-color:#DE4DAE"/>
					<stop  offset="0.8241" style="stop-color:#EC5485"/>
					<stop  offset="0.8949" style="stop-color:#F65968"/>
					<stop  offset="0.9559" style="stop-color:#FD5C56"/>
					<stop  offset="1" style="stop-color:#FF5D50"/>
				</linearGradient>
				<circle fill="url(#SVGID_1_)" cx="20" cy="20" r="20"/>
				<linearGradient id="SVGID_2_" gradientUnits="userSpaceOnUse" x1="20" y1="38.2358" x2="20" y2="1.5861">
					<stop  offset="0" style="stop-color:#DDE2E7"/>
					<stop  offset="0.1685" style="stop-color:#E5E8EC"/>
					<stop  offset="0.6503" style="stop-color:#F7F7F9"/>
					<stop  offset="1" style="stop-color:#FDFCFD"/>
				</linearGradient>
				<circle fill="url(#SVGID_2_)" cx="20" cy="19.911" r="18.325"/>
			</g>
			<linearGradient id="SVGID_3_" gradientUnits="userSpaceOnUse" x1="26.4381" y1="29.7187" x2="13.562" y2="10.6292">
				<stop  offset="0" style="stop-color:#22C9FD"/>
				<stop  offset="0.0493" style="stop-color:#2ABEFD"/>
				<stop  offset="0.3892" style="stop-color:#6B6BFF"/>
				<stop  offset="0.5271" style="stop-color:#756AF3"/>
				<stop  offset="0.5591" style="stop-color:#8D68D6"/>
				<stop  offset="0.6057" style="stop-color:#AC65B2"/>
				<stop  offset="0.6305" style="stop-color:#B864A4"/>
				<stop  offset="0.7326" style="stop-color:#D56182"/>
				<stop  offset="0.8377" style="stop-color:#EC5F67"/>
				<stop  offset="0.9304" style="stop-color:#FA5D56"/>
				<stop  offset="1" style="stop-color:#FF5D50"/>
			</linearGradient>
			<path fill-rule="evenodd" clip-rule="evenodd" fill="url(#SVGID_3_)" d="M29.123,7.815c-0.011-0.683-0.394-1.151-1.062-1.04
				c0,0-10.829,2.122-12.09,2.385c-0.819,0.171-1.092,0.683-1.076,1.543c-0.004,0.074,0,14.033,0,14.033
				c0,1.406-1.192,1.072-2.775,1.471c-2.691,0.677-2.768,1.866-2.943,2.242c-0.274,1.499,0.075,3.159,2.11,3.646
				c0.834,0.2,1.356,0.108,2.186-0.051c1.339-0.258,2.018-0.914,2.605-2.143c0.276-0.579,0.303-1.544,0.303-2.177
				c-0.002-3.991-0.002-7.788-0.002-11.779c0-0.666,0.185-0.877,0.841-1.007c3.207-0.635,6.433-1.306,9.639-1.936
				c0.722-0.142,0.799,0.244,0.799,0.974c0.003,2.989-0.012,7.877-0.012,8.349c0,1.684-3.155,0.646-5.175,2.515
				c-0.709,0.695-0.833,2.001-0.612,2.713c0.34,1.087,1.046,1.759,2.122,1.991c0.687,0.149,2.948,0.397,4.284-1.231
				c0.903-1.1,0.837-1.769,0.837-2.773L29.123,7.815z"/>
			<g>
				<linearGradient id="SVGID_4_" gradientUnits="userSpaceOnUse" x1="20" y1="38.2358" x2="20" y2="1.5861">
					<stop  offset="0" style="stop-color:#DDE2E7"/>
					<stop  offset="0.1685" style="stop-color:#E5E8EC"/>
					<stop  offset="0.6503" style="stop-color:#F7F7F9"/>
					<stop  offset="1" style="stop-color:#FDFCFD"/>
				</linearGradient>
				<path fill="url(#SVGID_4_)" d="M20,1.586c-10.12,0-18.325,8.204-18.325,18.325c0,10.121,8.204,18.325,18.325,18.325
					c10.121,0,18.325-8.204,18.325-18.325C38.325,9.79,30.121,1.586,20,1.586z M28.264,28.315c-1.335,1.628-3.597,1.38-4.284,1.231
					c-1.076-0.232-1.782-0.904-2.122-1.991c-0.221-0.711-0.097-2.018,0.612-2.713c2.02-1.869,5.175-0.831,5.175-2.515
					c0-0.472,0.014-5.36,0.012-8.349c0-0.73-0.077-1.116-0.799-0.974c-3.207,0.63-6.433,1.301-9.639,1.936
					c-0.655,0.13-0.841,0.341-0.841,1.007c0,3.991,0,7.788,0.002,11.779c0,0.633-0.027,1.598-0.303,2.177
					c-0.587,1.229-1.266,1.885-2.605,2.143c-0.83,0.16-1.352,0.251-2.186,0.051c-2.035-0.487-2.383-2.147-2.11-3.646
					C9.188,28.394,9.391,28,9.418,27.948c0.54-0.911,0.905-1.116,2.703-1.739c1.543-0.536,2.775-0.065,2.775-1.471
					c0,0-0.004-13.959,0-14.033c-0.016-0.86,0.256-1.372,1.076-1.543c1.261-0.263,12.09-2.385,12.09-2.385
					c0.668-0.111,1.051,0.357,1.062,1.04l-0.022,17.726C29.101,26.546,29.168,27.215,28.264,28.315z"/>
			</g>
		</g>
		<g>
			<path fill="#333333" d="M49.599,11.893c0.027,0.802-0.56,1.443-1.495,1.443c-0.828,0-1.416-0.641-1.416-1.443
				c0-0.827,0.614-1.468,1.469-1.468C49.039,10.424,49.599,11.066,49.599,11.893z M46.983,28.444v-12.92h2.35v12.92H46.983z"/>
			<path fill="#333333" d="M56.727,12.426h-5.472v-1.975h13.319v1.975h-5.498v16.018h-2.349V12.426z"/>
			<path fill="#333333" d="M76.105,24.921c0,1.335,0.027,2.511,0.106,3.524H74.13l-0.134-2.109h-0.054
				c-0.614,1.042-1.976,2.403-4.271,2.403c-2.029,0-4.458-1.121-4.458-5.66v-7.554h2.349v7.154c0,2.457,0.747,4.112,2.884,4.112
				c1.575,0,2.669-1.095,3.096-2.136c0.134-0.347,0.214-0.774,0.214-1.201v-7.929h2.349V24.921z"/>
			<path fill="#333333" d="M80,19.02c0-1.334-0.027-2.428-0.107-3.496h2.082l0.134,2.136h0.053c0.641-1.229,2.136-2.43,4.272-2.43
				c1.789,0,4.565,1.068,4.565,5.5v7.715h-2.349v-7.448c0-2.083-0.774-3.818-2.991-3.818c-1.548,0-2.749,1.095-3.149,2.402
				c-0.107,0.294-0.16,0.694-0.16,1.095v7.768H80V19.02z"/>
			<path fill="#333333" d="M96.12,22.411c0.053,3.177,2.082,4.485,4.432,4.485c1.682,0,2.697-0.294,3.578-0.667l0.401,1.681
				c-0.828,0.374-2.243,0.802-4.298,0.802c-3.979,0-6.355-2.616-6.355-6.515c0-3.897,2.296-6.967,6.061-6.967
				c4.217,0,5.339,3.711,5.339,6.087c0,0.481-0.054,0.855-0.08,1.095H96.12z M103.008,20.73c0.027-1.495-0.614-3.818-3.257-3.818
				c-2.375,0-3.417,2.189-3.604,3.818H103.008z"/>
			<path fill="#333333" d="M107.863,26.042c0.694,0.454,1.922,0.935,3.097,0.935c1.708,0,2.51-0.855,2.51-1.923
				c0-1.121-0.668-1.735-2.403-2.376c-2.324-0.828-3.417-2.108-3.417-3.658c0-2.081,1.681-3.79,4.457-3.79
				c1.308,0,2.456,0.374,3.176,0.801l-0.586,1.709c-0.507-0.321-1.442-0.748-2.643-0.748c-1.388,0-2.162,0.801-2.162,1.762
				c0,1.067,0.774,1.548,2.456,2.189c2.243,0.854,3.39,1.975,3.39,3.898c0,2.268-1.761,3.871-4.832,3.871
				c-1.415,0-2.722-0.347-3.631-0.881L107.863,26.042z"/>
		</g>
	</g>
</g>
</svg>
