<?xml version="1.0" encoding="utf-8"?>
<!-- Generator: Adobe Illustrator 23.0.0, SVG Export Plug-In . SVG Version: 6.00 Build 0)  -->
<svg version="1.1" id="Layer_1" xmlns="http://www.w3.org/2000/svg" xmlns:xlink="http://www.w3.org/1999/xlink" x="0px" y="0px"
	 viewBox="0 0 989.7 989.9" style="enable-background:new 0 0 989.7 989.9;" xml:space="preserve">
<style type="text/css">
	.st0{fill:#ED1C24;}
</style>
<title>play-white</title>
<g>
	<g id="Layer_1-2">
		<g id="Layer_2-2">
			<g id="Layer_1-2-2">
				<path class="st0" d="M494.6,989.9C221.2,989.7-0.2,768,0,494.6c0.1-198.7,119-378,302-455.4C553.8-67.2,844.1,50.7,950.5,302.5
					S939,844.6,687.2,951C626.3,976.8,560.8,990,494.6,989.9z M494.6,45.4C246.1,45.5,44.9,247.1,45.1,495.5
					c0.1,180.6,108.2,343.6,274.5,414c229.3,95.5,492.7-12.9,588.2-242.3c94.9-227.7-11.4-489.4-238.2-586.5
					C614.2,57.2,554.7,45.2,494.6,45.4L494.6,45.4z"/>
			</g>
		</g>
		<path class="st0" d="M710.4,512.6L392.9,746.4c-9.7,7.2-23.5,5.2-30.7-4.6c-2.8-3.8-4.3-8.4-4.3-13.1V261.1c0-12.1,9.8-22,21.9-22
			c4.7,0,9.3,1.5,13.1,4.3l317.5,233.8c9.8,7.2,11.8,20.9,4.7,30.7C713.8,509.7,712.2,511.3,710.4,512.6z"/>
	</g>
</g>
</svg>
